<?xml version="1.0" encoding="utf-8"?>
<!-- Generator: Adobe Illustrator 17.0.0, SVG Export Plug-In . SVG Version: 6.00 Build 0)  -->
<!DOCTYPE svg PUBLIC "-//W3C//DTD SVG 1.1//EN" "http://www.w3.org/Graphics/SVG/1.1/DTD/svg11.dtd">
<svg version="1.1" id="Capa_1" xmlns="http://www.w3.org/2000/svg" xmlns:xlink="http://www.w3.org/1999/xlink" x="0px" y="0px"
	 width="160px" height="92.967px" viewBox="0 0 160 92.967" enable-background="new 0 0 160 92.967" xml:space="preserve">
<g>
	<path fill="#F39913" d="M74.711,21.62L47.734,1.607c-2.605-1.935-7.015-2.155-9.801-0.488L4.516,21.106
		c-2.784,1.664-4.802,5.674-4.483,8.907l3.308,33.515c0.319,3.233,2.763,7.389,5.429,9.237L35.924,91.56
		c2.669,1.845,7.057,1.882,9.754,0.076l25.932-17.34c2.698-1.804,5.072-5.933,5.28-9.172l2.182-34.095
		C79.279,27.787,77.317,23.552,74.711,21.62 M29.727,36.901h9.249c0.285,0,0.483,0.244,0.483,0.483v27.969
		c0,0.192-0.144,0.385-0.331,0.385h-7.051c-0.196,0-0.384-0.239-0.384-0.431V44.881c0-0.146-0.186-0.339-0.335-0.339h-2.021
		c-0.15,0-0.333,0.189-0.337,0.334v0.005v20.427c0,0.238-0.231,0.431-0.426,0.431h-6.474c-0.24,0-0.383-0.239-0.383-0.431V44.926
		c0-0.334-0.196-0.384-0.675-0.384c-0.525,0-0.666-0.143-0.666-0.382v-6.728c0-0.287,0.141-0.53,0.765-0.53
		c0.336,0,0.577-0.096,0.577-0.24v-2.979c0-3.029,3.024-4.711,7.48-4.711h5.993c2.107,0,4.269,1.491,4.269,3.655
		c0,2.499,0,2.783-0.578,2.783h-6.325c-0.527,0-0.864-0.382-0.864-0.959c0-1.25-0.577-1.443-1.199-1.443
		c-0.765,0-1.494,0.528-1.494,1.396v1.827C28.998,36.707,29.337,36.901,29.727,36.901 M50.641,65.353
		c0,0.192-0.142,0.385-0.338,0.385h-7.772c-0.19,0-0.381-0.239-0.381-0.431v-27.83c0-0.333,0.192-0.576,0.479-0.576h7.531
		c0.284,0,0.481,0.244,0.481,0.483V65.353z M50.641,34.88c0,0.294-0.197,0.529-0.481,0.529h-7.531c-0.24,0-0.479-0.284-0.479-0.573
		v-5.96c0-0.239,0.239-0.529,0.479-0.529h7.576c0.195,0,0.437,0.143,0.437,0.387V34.88z M72.551,40.987l-7.336,0.336
		c-0.292,0-0.481-0.144-0.578-0.528c-0.285-1.152-0.772-1.73-1.442-1.73c-0.478,0-0.719,0.381-0.719,0.866
		c0,1.535,2.258,3.266,5.139,5.24c3.114,2.115,5.463,5.575,5.463,9.128c0,6.441-3.834,11.584-10.121,11.584
		c-7.29,0-10.644-5.287-10.644-12.976c0-0.242,0.187-0.483,0.571-0.483l6.616-0.335c0.337,0,0.532,0.193,0.585,0.625
		c0.187,1.925,0.997,3.988,2.152,3.988c0.677,0,1.104-0.431,1.104-1.536c0-1.154-2.686-3.27-5.895-5.864
		c-3.219-2.597-4.801-6.203-4.801-9.467c0-4.903,3.646-10.237,10.074-10.237c6.427,0,10.411,5.046,10.411,10.763
		C73.128,40.695,72.941,40.987,72.551,40.987"/>
	<path fill="#F39913" d="M103.083,40.546c0-5.772-3.76-10.859-10.057-10.859c-6.2,0-9.617,5.038-9.617,11.005
		c0,1.957,0,2.152,0.586,2.201l7.567,0.342c0.195,0,0.39-0.147,0.39-0.391c0-1.467,0.587-2.886,1.27-2.886
		c0.489,0,0.684,0.44,0.684,1.126c0,4.109-6.542,7.631-10.154,13.206c-0.342,0.538-0.488,1.077-0.488,1.467v9.784
		c0,0.195,0.244,0.342,0.439,0.342h18.551c0.341,0,0.488-0.147,0.488-0.391v-9.294c0-0.244-0.147-0.44-0.39-0.44H93.32
		c-0.196,0-0.293-0.048-0.293-0.196c0-0.098,0.098-0.244,0.195-0.342C99.032,51.161,103.083,47.883,103.083,40.546"/>
	<path fill="#F39913" d="M114.358,29.688c-6.102,0-10.105,4.549-10.105,10.662v14.723c0,6.26,4.003,10.809,10.105,10.809
		c6.054,0,10.203-4.549,10.203-10.809V40.35C124.561,34.237,120.461,29.688,114.358,29.688 M115.189,54.878
		c0,0.636-0.342,0.978-0.781,0.978c-0.489,0-0.782-0.342-0.782-0.978V40.497c0-0.587,0.294-0.929,0.782-0.929
		c0.488,0,0.781,0.342,0.781,0.978V54.878z"/>
	<path fill="#F39913" d="M136.91,29.688h-10.691c-0.244,0-0.44,0.195-0.44,0.391v9.978c0,0.342,0.147,0.342,1.416,0.342
		c0.147,0,0.293,0.147,0.293,0.294v24.848c0,0.195,0.195,0.342,0.341,0.342h9.129c0.195,0,0.343-0.196,0.343-0.391V30.079
		C137.302,29.883,137.106,29.688,136.91,29.688"/>
	<path fill="#F39913" d="M158.584,50.378c-0.684,0-0.879-0.392-0.879-0.782V30.079c0-0.196-0.195-0.391-0.39-0.391h-7.226
		c-0.196,0-0.439,0.195-0.537,0.391l-10.887,20.005c-0.048,0.147-0.146,0.391-0.146,0.587v7.826c0,0.196,0.195,0.343,0.342,0.343
		h8.786c0.147,0,0.245,0.098,0.245,0.245v6.457c0,0.195,0.195,0.342,0.341,0.342h9.081c0.243,0,0.39-0.147,0.39-0.342v-6.066
		c0-0.343,0.586-0.636,1.123-0.636c0.537,0,1.171-0.049,1.171-0.392v-7.532C160,50.476,159.365,50.378,158.584,50.378
		 M147.893,50.133c0,0.147-0.148,0.245-0.293,0.245c-1.807,0-2.003,0-1.904-0.245l1.708-3.375c0.098-0.195,0.196-0.294,0.293-0.294
		c0.098,0,0.196,0.098,0.196,0.294V50.133z"/>
</g>
</svg>
