<?xml version="1.0" encoding="utf-8"?>
<!-- Generator: Adobe Illustrator 17.0.0, SVG Export Plug-In . SVG Version: 6.00 Build 0)  -->
<!DOCTYPE svg PUBLIC "-//W3C//DTD SVG 1.1//EN" "http://www.w3.org/Graphics/SVG/1.1/DTD/svg11.dtd">
<svg version="1.1" id="Capa_1" xmlns="http://www.w3.org/2000/svg" xmlns:xlink="http://www.w3.org/1999/xlink" x="0px" y="0px"
	 width="64px" height="64px" viewBox="0 0 64 64" enable-background="new 0 0 64 64" xml:space="preserve">
<g>
	<polygon fill="#03163C" points="64,0 64,32 64,64 31.992,64 0,64 0,32 0,0 31.992,0 	"/>
	<g>
		<path fill="#FFFFFF" d="M19.097,33.761h1.266v6.982v1.486c0,0.775-0.585,1.365-1.314,1.365c-0.712,0-1.254-0.606-1.254-1.365
			v-1.423V23.84v-1.501c0-0.549,0.109-1.821,1.043-1.815c0.766,0.003,1.297,0.705,1.544,1.773c0.259,1.122,0.422,3.696,0.422,4.83
			c0,0.386,0.139,0.515,0.561,0.515h0.904v-7.467h-0.735v0.356c-0.006,0.38-0.241,0.349-0.44,0.229
			c-0.699-0.453-1.489-0.802-2.255-0.796c-1.242,0.006-3.032,0.555-3.038,2.942v17.572c0.024,3.054,1.64,3.618,3.226,3.639
			c1.236,0.005,1.784-0.649,2.267-0.883c0.314-0.151,0.555,0.238,0.555,0.687h0.645V33.761h1.037v-0.76h-4.432V33.761z"/>
		<path fill="#FFFFFF" d="M45.777,26.902v4.667c0,0.739-0.47,1.417-1.387,1.411h-1.181v-6.017v-6.071h1.079
			c1.019,0,1.489,0.862,1.489,1.519V26.902z M44.294,20.192h-4.287v0.699h1.127v0.983v20.687c-0.024,0.476-0.205,0.648-0.898,0.678
			h-0.229v0.597h4.835v-0.597h-0.506c-0.814-0.033-1.11-0.362-1.127-1.067v-8.399h1.411c2.051,0,3.22-0.986,3.22-2.306v-4.419
			v-4.353C47.839,21.374,46.826,20.192,44.294,20.192"/>
		<path fill="#FFFFFF" d="M35.141,42.154v0.018L32.41,20.186h-0.012v0.006h-2.146l-2.75,22.031
			c-0.151,0.702-0.163,0.877-1.224,0.934v0.151v0.524h3.389v-0.599c-0.435,0-0.85-0.124-1.055-0.314
			c-0.133-0.151-0.169-0.331-0.181-0.47l1.025-8.688h2.616l1.079,8.676c-0.006,0.552-0.06,0.754-0.724,0.796h-0.326v0.599h4.305
			v-0.599h-0.115C35.467,43.191,35.196,42.684,35.141,42.154 M29.558,33.013l1.128-9.517l1.284,9.517H29.558z"/>
	</g>
</g>
</svg>
